<?xml version="1.0" encoding="UTF-8" standalone="no"?>
<svg
   xmlns:dc="http://purl.org/dc/elements/1.1/"
   xmlns:cc="http://creativecommons.org/ns#"
   xmlns:rdf="http://www.w3.org/1999/02/22-rdf-syntax-ns#"
   xmlns:svg="http://www.w3.org/2000/svg"
   xmlns="http://www.w3.org/2000/svg"
   xmlns:sodipodi="http://sodipodi.sourceforge.net/DTD/sodipodi-0.dtd"
   xmlns:inkscape="http://www.inkscape.org/namespaces/inkscape"
   version="1.1"
   x="0px"
   y="0px"
   viewBox="0 0 110 110"
   xml:space="preserve"
   id="svg2"
   inkscape:version="0.91 r13725"
   sodipodi:docname="ban.svg"
   width="110"
   height="110"><metadata
     id="metadata16"><rdf:RDF><cc:Work
         rdf:about=""><dc:format>image/svg+xml</dc:format><dc:type
           rdf:resource="http://purl.org/dc/dcmitype/StillImage" /><dc:title></dc:title></cc:Work></rdf:RDF></metadata><defs
     id="defs14" /><sodipodi:namedview
     pagecolor="#ffffff"
     bordercolor="#666666"
     borderopacity="1"
     objecttolerance="10"
     gridtolerance="10"
     guidetolerance="10"
     inkscape:pageopacity="0"
     inkscape:pageshadow="2"
     inkscape:window-width="640"
     inkscape:window-height="480"
     id="namedview12"
     showgrid="false"
     fit-margin-top="10"
     fit-margin-left="10"
     fit-margin-right="10"
     fit-margin-bottom="10"
     inkscape:zoom="1.888"
     inkscape:cx="41.228814"
     inkscape:cy="42.5"
     inkscape:current-layer="svg2" /><g
     id="g4"
     transform="translate(5,5)"><path
       d="M 50,5 C 25.1,5 5,25.1 5,50 5,74.9 25.1,95 50,95 74.9,95 95,74.9 95,50 95,25.1 74.9,5 50,5 Z m 10,81.1 c -3.2,0.9 -6.5,1.4 -10,1.4 -3.5,0 -6.8,-0.5 -10,-1.4 l 0,-12 -7.5,-10 0,-15.1 c 0,-0.8 0.5,-1.4 1.2,-1.5 0.7,-0.1 1.3,0.5 1.3,1.2 l 0,11.3 5,0 0,-31 c 0,-0.8 0.5,-1.4 1.2,-1.5 0.7,0 1.3,0.5 1.3,1.2 l 0,21.3 5,0 0,-21.2 0,-4.8 c 0,-0.8 0.5,-1.4 1.2,-1.5 0.7,-0.1 1.3,0.5 1.3,1.2 l 0,5 0,21.3 5,0 0,-21.2 c 0,-0.7 0.6,-1.3 1.3,-1.3 0.7,0 1.3,0.6 1.3,1.3 l 0,21.2 5,0 0,-11.2 c 0,-0.7 0.6,-1.3 1.3,-1.3 0.7,0 1.3,0.6 1.3,1.3 l 0,30.7 -5,10 0,6.6 z m 5,-1.7 0,-3.8 5,-10 0,-31.8 c 0,-3.4 -2.8,-6.3 -6.3,-6.3 -0.4,0 -0.8,0 -1.3,0.1 l 0,-3.9 c 0,-3.4 -2.8,-6.3 -6.3,-6.3 -0.5,0 -0.9,0.1 -1.4,0.2 -0.2,-1.3 -0.9,-2.5 -1.8,-3.4 -1.3,-1.2 -2.9,-1.8 -4.6,-1.7 -2.9,0.2 -5.2,2.3 -5.8,5.1 -0.6,-0.1 -1.1,-0.2 -1.7,-0.1 -3.3,0.2 -5.9,3 -5.9,6.5 l 0,13.7 c -0.5,-0.1 -1,-0.1 -1.6,-0.1 -3.3,0.2 -5.9,3 -5.9,6.5 l 0,16.9 7.5,10 0,8.5 C 21.7,78.7 12.4,65.5 12.4,50.1 12.4,29.4 29.2,12.6 49.9,12.6 70.6,12.6 87.5,29.3 87.5,50 87.5,65.3 78.2,78.6 65,84.4 Z"
       id="path6"
       inkscape:connector-curvature="0" /></g></svg>