<?xml version="1.0" encoding="UTF-8" standalone="no"?>
<svg
   xmlns:dc="http://purl.org/dc/elements/1.1/"
   xmlns:cc="http://creativecommons.org/ns#"
   xmlns:rdf="http://www.w3.org/1999/02/22-rdf-syntax-ns#"
   xmlns:svg="http://www.w3.org/2000/svg"
   xmlns="http://www.w3.org/2000/svg"
   xmlns:sodipodi="http://sodipodi.sourceforge.net/DTD/sodipodi-0.dtd"
   xmlns:inkscape="http://www.inkscape.org/namespaces/inkscape"
   version="1.1"
   x="0px"
   y="0px"
   viewBox="0 0 74.835999 65"
   enable-background="new 0 0 100 100"
   xml:space="preserve"
   id="svg2"
   inkscape:version="0.91 r13725"
   sodipodi:docname="bus.svg"
   width="74.835999"
   height="65"><metadata
     id="metadata20"><rdf:RDF><cc:Work
         rdf:about=""><dc:format>image/svg+xml</dc:format><dc:type
           rdf:resource="http://purl.org/dc/dcmitype/StillImage" /><dc:title></dc:title></cc:Work></rdf:RDF></metadata><defs
     id="defs18" /><sodipodi:namedview
     pagecolor="#ffffff"
     bordercolor="#666666"
     borderopacity="1"
     objecttolerance="10"
     gridtolerance="10"
     guidetolerance="10"
     inkscape:pageopacity="0"
     inkscape:pageshadow="2"
     inkscape:window-width="640"
     inkscape:window-height="480"
     id="namedview16"
     showgrid="false"
     fit-margin-top="10"
     fit-margin-left="10"
     fit-margin-right="10"
     fit-margin-bottom="10"
     inkscape:zoom="1.888"
     inkscape:cx="23.646814"
     inkscape:cy="20"
     inkscape:current-layer="svg2" /><path
     d="m 24.918,30 25,0 c 1.381,0 2.5,-1.119 2.5,-2.5 l 0,-7.5 c 0,-1.381 -1.119,-2.5 -2.5,-2.5 l -25,0 c -1.381,0 -2.5,1.119 -2.5,2.5 l 0,7.5 c 0,1.381 1.119,2.5 2.5,2.5 z m 2.5,-7.5 20,0 0,2.5 -20,0 0,-2.5 z"
     id="path4"
     inkscape:connector-curvature="0" /><path
     d="m 24.918,40 2.5,0 c 1.381,0 2.5,-1.119 2.5,-2.5 0,-1.381 -1.119,-2.5 -2.5,-2.5 l -2.5,0 c -1.381,0 -2.5,1.119 -2.5,2.5 0,1.381 1.119,2.5 2.5,2.5 z"
     id="path6"
     inkscape:connector-curvature="0" /><path
     d="m 49.918,35 -2.5,0 c -1.381,0 -2.5,1.119 -2.5,2.5 0,1.381 1.119,2.5 2.5,2.5 l 2.5,0 c 1.381,0 2.5,-1.119 2.5,-2.5 0,-1.381 -1.119,-2.5 -2.5,-2.5 z"
     id="path8"
     inkscape:connector-curvature="0" /><path
     d="m 12.418,22.5 2.5,0 0,30 c 0,1.381 1.119,2.5 2.5,2.5 l 7.5,0 c 1.381,0 2.5,-1.119 2.5,-2.5 l 0,-2.5 20,0 0,2.5 c 0,1.381 1.119,2.5 2.5,2.5 l 7.5,0 c 1.381,0 2.5,-1.119 2.5,-2.5 l 0,-30 2.5,0 c 3.224,0 3.224,-5 0,-5 l -2.5,0 0,-5 c 0,-1.381 -1.119,-2.5 -2.5,-2.5 l -40,0 c -1.381,0 -2.5,1.119 -2.5,2.5 l 0,5 -2.5,0 c -3.224,0 -3.224,5 0,5 z m 7.5,-7.5 35,0 0,35 -2.5,0 0,-2.5 c 0,-1.381 -1.119,-2.5 -2.5,-2.5 l -25,0 c -1.381,0 -2.5,1.119 -2.5,2.5 l 0,2.5 -2.5,0 0,-35 z"
     id="path10"
     inkscape:connector-curvature="0" /></svg>