<?xml version="1.0" encoding="UTF-8" standalone="no"?>
<svg
   xmlns:dc="http://purl.org/dc/elements/1.1/"
   xmlns:cc="http://creativecommons.org/ns#"
   xmlns:rdf="http://www.w3.org/1999/02/22-rdf-syntax-ns#"
   xmlns:svg="http://www.w3.org/2000/svg"
   xmlns="http://www.w3.org/2000/svg"
   xmlns:sodipodi="http://sodipodi.sourceforge.net/DTD/sodipodi-0.dtd"
   xmlns:inkscape="http://www.inkscape.org/namespaces/inkscape"
   version="1.1"
   x="0px"
   y="0px"
   viewBox="0 0 100 100"
   enable-background="new 0 0 100 100"
   xml:space="preserve"
   id="svg2"
   inkscape:version="0.91 r13725"
   sodipodi:docname="bus.svg"
   width="100"
   height="100"><metadata
     id="metadata20"><rdf:RDF><cc:Work
         rdf:about=""><dc:format>image/svg+xml</dc:format><dc:type
           rdf:resource="http://purl.org/dc/dcmitype/StillImage" /><dc:title></dc:title></cc:Work></rdf:RDF></metadata><defs
     id="defs18" /><sodipodi:namedview
     pagecolor="#ffffff"
     bordercolor="#666666"
     borderopacity="1"
     objecttolerance="10"
     gridtolerance="10"
     guidetolerance="10"
     inkscape:pageopacity="0"
     inkscape:pageshadow="2"
     inkscape:window-width="640"
     inkscape:window-height="480"
     id="namedview16"
     showgrid="true"
     fit-margin-top="10"
     fit-margin-left="10"
     fit-margin-right="10"
     fit-margin-bottom="10"
     inkscape:zoom="5.3400704"
     inkscape:cx="71.938498"
     inkscape:cy="43.168987"
     inkscape:current-layer="svg2"><inkscape:grid
       type="xygrid"
       id="grid12552"
       spacingx="3.6"
       spacingy="3.6" /></sodipodi:namedview><path
     d="m 24.249362,21.030533 c -1.77808,0 -3.218829,1.440748 -3.218829,3.218829 l 0,6.437658 -3.21883,0 c -4.151003,0 -4.151003,6.437661 0,6.437661 l 3.21883,0 0,38.625956 c 0,1.778083 1.440749,3.21883 3.218829,3.21883 l 9.656489,0 c 1.778082,0 3.218831,-1.440747 3.218831,-3.21883 l 0,-3.21883 25.750637,0 0,3.21883 c 0,1.778083 1.440748,3.21883 3.218831,3.21883 l 9.656488,0 c 1.778081,0 3.21883,-1.440747 3.21883,-3.21883 l 0,-38.625956 3.21883,0 c 4.151001,0 4.151001,-6.437661 0,-6.437661 l -3.21883,0 0,-6.437658 c 0,-1.778081 -1.440749,-3.218829 -3.21883,-3.218829 l -51.501276,0 z m 3.218831,6.437659 45.063615,0 0,45.063615 -3.218828,0 0,-3.218829 c 0,-1.778082 -1.44075,-3.21883 -3.21883,-3.21883 l -32.188299,0 c -1.778081,0 -3.21883,1.440748 -3.21883,3.21883 l 0,3.218829 -3.218828,0 0,-45.063615 z m 6.437658,3.218827 c -1.778081,0 -3.21883,1.44075 -3.21883,3.21883 l 0,9.65649 c 0,1.778082 1.440749,3.21883 3.21883,3.21883 l 32.188299,0 c 1.77808,0 3.21883,-1.440748 3.21883,-3.21883 l 0,-9.65649 c 0,-1.77808 -1.44075,-3.21883 -3.21883,-3.21883 l -32.188299,0 z m 3.218831,6.437661 25.750637,0 0,3.218831 -25.750637,0 0,-3.218831 z m -3.218831,16.094149 c -1.778081,0 -3.21883,1.440747 -3.21883,3.218831 0,1.778079 1.440749,3.218827 3.21883,3.218827 l 3.218831,0 c 1.778081,0 3.21883,-1.440747 3.21883,-3.218827 0,-1.778084 -1.440749,-3.218831 -3.21883,-3.218831 l -3.218831,0 z m 28.969468,0 c -1.778081,0 -3.21883,1.440747 -3.21883,3.218831 0,1.778079 1.440749,3.218827 3.21883,3.218827 l 3.218831,0 c 1.77808,0 3.21883,-1.440747 3.21883,-3.218827 0,-1.778084 -1.44075,-3.218831 -3.21883,-3.218831 l -3.218831,0 z"
     id="path4"
     inkscape:connector-curvature="0" /></svg>