<?xml version="1.0" encoding="UTF-8" standalone="no"?>
<svg
   xmlns:dc="http://purl.org/dc/elements/1.1/"
   xmlns:cc="http://creativecommons.org/ns#"
   xmlns:rdf="http://www.w3.org/1999/02/22-rdf-syntax-ns#"
   xmlns:svg="http://www.w3.org/2000/svg"
   xmlns="http://www.w3.org/2000/svg"
   xmlns:sodipodi="http://sodipodi.sourceforge.net/DTD/sodipodi-0.dtd"
   xmlns:inkscape="http://www.inkscape.org/namespaces/inkscape"
   version="1.1"
   x="0px"
   y="0px"
   viewBox="0 0 75.008904 77.5"
   enable-background="new 0 0 100 100"
   xml:space="preserve"
   id="svg2"
   inkscape:version="0.91 r13725"
   sodipodi:docname="ferry.svg"
   width="75.008904"
   height="77.5"><metadata
     id="metadata14"><rdf:RDF><cc:Work
         rdf:about=""><dc:format>image/svg+xml</dc:format><dc:type
           rdf:resource="http://purl.org/dc/dcmitype/StillImage" /><dc:title></dc:title></cc:Work></rdf:RDF></metadata><defs
     id="defs12" /><sodipodi:namedview
     pagecolor="#ffffff"
     bordercolor="#666666"
     borderopacity="1"
     objecttolerance="10"
     gridtolerance="10"
     guidetolerance="10"
     inkscape:pageopacity="0"
     inkscape:pageshadow="2"
     inkscape:window-width="640"
     inkscape:window-height="480"
     id="namedview10"
     showgrid="false"
     fit-margin-top="10"
     fit-margin-left="10"
     fit-margin-right="10"
     fit-margin-bottom="10"
     inkscape:zoom="1.888"
     inkscape:cx="23.725769"
     inkscape:cy="-38.432686"
     inkscape:current-layer="svg2" /><path
     d="m 20.296956,66.2 c 0.4,0.8 1.3,1.3 2.2,1.3 l 30,0 c 0.9,0 1.7,-0.5 2.2,-1.3 l 10,-17.5 c 0.8,-1.5 0,-3.4 -1.7,-3.7 l -3,-0.6 0,-11.9 c 0,-1.4 -1.1,-2.5 -2.5,-2.5 l -10,0 0,-7.5 2.5,0 c 3.2,0 3.2,-5 0,-5 l -10,0 0,-5 c 0,-1.4 -1.1,-2.5 -2.5,-2.5 -1.4,0 -2.5,1.1 -2.5,2.5 l 0,5 -10,0 c -3.2,0 -3.2,5 0,5 l 2.5,0 0,7.5 -10,0 c -1.4,0 -2.5,1.1 -2.5,2.5 l 0,12 -3,0.6 c -1.6,0.3 -2.5000001,2.2 -1.7,3.7 l 10,17.4 z m 38.3,-16.9 -7.6,13.2 -11,0 0,-17 18.6,3.8 z m -26.1,-26.8 10,0 0,7.5 -10,0 0,-7.5 z m -12.5,12.5 35,0 0,8.5 -17,-3.4 c 0,0 0,0 0,0 l 0,0 c -0.3,-0.1 -0.7,-0.1 -1,0 l 0,0 c 0,0 0,0 0,0 l -17,3.4 0,-8.5 z m 15,10.5 0,17 -11,0 -7.6,-13.2 18.6,-3.8 z"
     id="path4"
     inkscape:connector-curvature="0" /></svg>