<?xml version="1.0" encoding="UTF-8" standalone="no"?>
<svg
   xmlns:dc="http://purl.org/dc/elements/1.1/"
   xmlns:cc="http://creativecommons.org/ns#"
   xmlns:rdf="http://www.w3.org/1999/02/22-rdf-syntax-ns#"
   xmlns:svg="http://www.w3.org/2000/svg"
   xmlns="http://www.w3.org/2000/svg"
   xmlns:sodipodi="http://sodipodi.sourceforge.net/DTD/sodipodi-0.dtd"
   xmlns:inkscape="http://www.inkscape.org/namespaces/inkscape"
   version="1.1"
   x="0px"
   y="0px"
   viewBox="0 0 100 100"
   enable-background="new 0 0 100 100"
   xml:space="preserve"
   id="svg2"
   inkscape:version="0.91 r13725"
   sodipodi:docname="ferry.svg"
   width="100"
   height="100"><metadata
     id="metadata14"><rdf:RDF><cc:Work
         rdf:about=""><dc:format>image/svg+xml</dc:format><dc:type
           rdf:resource="http://purl.org/dc/dcmitype/StillImage" /><dc:title></dc:title></cc:Work></rdf:RDF></metadata><defs
     id="defs12" /><sodipodi:namedview
     pagecolor="#ffffff"
     bordercolor="#666666"
     borderopacity="1"
     objecttolerance="10"
     gridtolerance="10"
     guidetolerance="10"
     inkscape:pageopacity="0"
     inkscape:pageshadow="2"
     inkscape:window-width="640"
     inkscape:window-height="480"
     id="namedview10"
     showgrid="false"
     fit-margin-top="10"
     fit-margin-left="10"
     fit-margin-right="10"
     fit-margin-bottom="10"
     inkscape:zoom="7.552"
     inkscape:cx="73.046367"
     inkscape:cy="44.67817"
     inkscape:current-layer="svg2"
     showguides="true"
     inkscape:guide-bbox="true"><sodipodi:guide
       position="21.831965,67.813162"
       orientation="1,0"
       id="guide21543" /><sodipodi:guide
       position="28.12169,65.992452"
       orientation="1,0"
       id="guide21545" /></sodipodi:namedview><path
     d="m 28.554033,84.211357 c 0.498526,0.99705 1.62021,1.620211 2.741894,1.620211 l 37.389462,0 c 1.121684,0 2.118736,-0.623161 2.741893,-1.620211 L 83.890436,62.400838 c 0.997053,-1.869473 0,-4.237472 -2.118735,-4.611367 l -3.738947,-0.747789 0,-14.831153 c 0,-1.744842 -1.370947,-3.115789 -3.115789,-3.115789 l -12.463153,0 0,-9.347366 3.115788,0 c 3.988209,0 3.988209,-6.231576 0,-6.231576 l -12.463154,0 0,-6.231577 c 0,-1.744842 -1.370947,-3.115789 -3.115788,-3.115789 -1.744842,0 -3.115789,1.370947 -3.115789,3.115789 l 0,6.231577 -12.463154,0 c -3.988209,0 -3.988209,6.231576 0,6.231576 l 3.115788,0 0,9.347366 -12.463153,0 c -1.744841,0 -3.115789,1.370947 -3.115789,3.115789 l 0,14.955785 -3.738946,0.747789 c -1.994104,0.373894 -3.115789,2.741894 -2.118736,4.611367 l 12.463154,21.685887 z m 47.73388,-21.06273 -9.471997,16.451365 -13.70947,0 0,-21.187363 23.181467,4.735998 z M 43.75908,29.747374 l 12.463155,0 0,9.347366 -12.463155,0 0,-9.347366 z m -15.578941,15.578943 43.621038,0 0,10.593681 -21.187362,-4.237472 c 0,0 0,0 0,0 l 0,0 c -0.373894,-0.124632 -0.87242,-0.124632 -1.246315,0 l 0,0 c 0,0 0,0 0,0 l -21.187361,4.237472 0,-10.593681 z m 18.69473,13.086312 0,21.187363 -13.709469,0 -9.471997,-16.451365 23.181466,-4.735998 z"
     id="path4"
     inkscape:connector-curvature="0" /></svg>