<?xml version="1.0" encoding="UTF-8" standalone="no"?>
<svg
   xmlns:dc="http://purl.org/dc/elements/1.1/"
   xmlns:cc="http://creativecommons.org/ns#"
   xmlns:rdf="http://www.w3.org/1999/02/22-rdf-syntax-ns#"
   xmlns:svg="http://www.w3.org/2000/svg"
   xmlns="http://www.w3.org/2000/svg"
   xmlns:sodipodi="http://sodipodi.sourceforge.net/DTD/sodipodi-0.dtd"
   xmlns:inkscape="http://www.inkscape.org/namespaces/inkscape"
   version="1.1"
   x="0px"
   y="0px"
   viewBox="0 0 100 100"
   enable-background="new 0 0 100 100"
   xml:space="preserve"
   id="svg2"
   inkscape:version="0.91 r13725"
   sodipodi:docname="metro.svg"
   width="100"
   height="100"><metadata
     id="metadata20"><rdf:RDF><cc:Work
         rdf:about=""><dc:format>image/svg+xml</dc:format><dc:type
           rdf:resource="http://purl.org/dc/dcmitype/StillImage" /><dc:title></dc:title></cc:Work></rdf:RDF></metadata><defs
     id="defs18" /><sodipodi:namedview
     pagecolor="#ffffff"
     bordercolor="#666666"
     borderopacity="1"
     objecttolerance="10"
     gridtolerance="10"
     guidetolerance="10"
     inkscape:pageopacity="0"
     inkscape:pageshadow="2"
     inkscape:window-width="640"
     inkscape:window-height="480"
     id="namedview16"
     showgrid="true"
     fit-margin-top="10"
     fit-margin-left="10"
     fit-margin-right="10"
     fit-margin-bottom="10"
     inkscape:zoom="7.552"
     inkscape:cx="70.225196"
     inkscape:cy="60.922665"
     inkscape:current-layer="svg2" /><path
     d="m 50,2.6832484e-4 c -4.126173,0 -7.501644,2.62574537516 -8.877036,6.25177777516 l -13.004186,0 c -0.875249,0 -1.626439,0.3741289 -2.251617,0.8742711 L 22.741272,10.252206 C 22.116095,10.877384 21.867,11.628575 21.867,12.503824 l 0,50.014222 c 0,0.875249 0.37413,1.623997 0.874272,2.249174 l 3.125889,3.125889 c 0.625178,0.625178 1.376368,0.876715 2.251617,0.876715 l 3.001342,0 -6.127231,27.507822 c -0.875249,3.876104 5.251982,5.251004 6.127231,1.374902 l 6.251778,-28.133 c 0,-0.250071 0.124546,-0.500142 0.124546,-0.625178 l 25.007112,0 c 0,0.250071 -4.89e-4,0.500143 0.124546,0.625178 l 6.251778,28.133 c 0.875249,3.876102 7.00248,2.626232 6.127231,-1.374902 l -6.127231,-27.507822 3.001342,0 c 0.875249,0 1.626439,-0.376572 2.251617,-0.876715 L 77.258728,64.76722 C 77.883905,64.142043 78.133,63.393295 78.133,62.518046 l 0,-50.014222 c 0,-0.875249 -0.37413,-1.62644 -0.874272,-2.251618 L 74.132839,7.1263172 C 73.507661,6.5011394 72.756471,6.2520449 71.881222,6.2520461 l -13.004186,0 C 57.62668,2.6260137 54.126173,2.6707484e-4 50,2.6832484e-4 Z M 50,6.2520461 c 1.750498,0 3.125889,1.3753911 3.125889,3.1258889 0,1.750496 -1.375391,3.125889 -3.125889,3.125889 -1.750498,0 -3.125889,-1.375393 -3.125889,-3.125889 0,-1.7504978 1.375391,-3.1258889 3.125889,-3.1258889 z m -20.630867,6.2517779 11.753831,0 c 1.250356,3.62603 4.750863,6.251777 8.877036,6.251777 4.126173,0 7.501644,-2.625747 8.877036,-6.251777 l 11.753831,0 1.250355,1.250355 0,47.513511 -1.250355,1.250356 -41.261734,0 -1.250355,-1.250356 0,-47.513511 1.250355,-1.250355 z m 5.001423,9.377666 c -1.750498,0 -3.125889,1.37539 -3.125889,3.125889 l 0,12.503556 c 0,1.750496 1.375391,3.125889 3.125889,3.125889 l 31.258888,0 c 1.750498,0 3.125889,-1.375391 3.125889,-3.125889 l 0,-12.503556 c 0,-1.750498 -1.375391,-3.125889 -3.125889,-3.125889 l -31.258888,0 z m 3.125888,6.251778 9.377667,0 0,6.251778 -9.377667,0 0,-6.251778 z m 15.629445,0 9.377667,0 0,6.251778 -9.377667,0 0,-6.251778 z M 34.370556,53.140379 a 3.1258889,3.1258889 0 0 0 -3.125889,3.125889 3.1258889,3.1258889 0 0 0 3.125889,3.125889 3.1258889,3.1258889 0 0 0 3.125888,-3.125889 3.1258889,3.1258889 0 0 0 -3.125888,-3.125889 z m 31.258888,0 a 3.1258889,3.1258889 0 0 0 -3.125888,3.125889 3.1258889,3.1258889 0 0 0 3.125888,3.125889 3.1258889,3.1258889 0 0 0 3.125889,-3.125889 3.1258889,3.1258889 0 0 0 -3.125889,-3.125889 z"
     id="path4"
     inkscape:connector-curvature="0" /></svg>