<?xml version="1.0" encoding="UTF-8" standalone="no"?>
<svg
   xmlns:dc="http://purl.org/dc/elements/1.1/"
   xmlns:cc="http://creativecommons.org/ns#"
   xmlns:rdf="http://www.w3.org/1999/02/22-rdf-syntax-ns#"
   xmlns:svg="http://www.w3.org/2000/svg"
   xmlns="http://www.w3.org/2000/svg"
   xmlns:sodipodi="http://sodipodi.sourceforge.net/DTD/sodipodi-0.dtd"
   xmlns:inkscape="http://www.inkscape.org/namespaces/inkscape"
   version="1.1"
   x="0px"
   y="0px"
   viewBox="0 0 65 99.977066"
   enable-background="new 0 0 100 100"
   xml:space="preserve"
   id="svg2"
   inkscape:version="0.91 r13725"
   sodipodi:docname="metro.svg"
   width="65"
   height="99.977066"><metadata
     id="metadata20"><rdf:RDF><cc:Work
         rdf:about=""><dc:format>image/svg+xml</dc:format><dc:type
           rdf:resource="http://purl.org/dc/dcmitype/StillImage" /><dc:title></dc:title></cc:Work></rdf:RDF></metadata><defs
     id="defs18" /><sodipodi:namedview
     pagecolor="#ffffff"
     bordercolor="#666666"
     borderopacity="1"
     objecttolerance="10"
     gridtolerance="10"
     guidetolerance="10"
     inkscape:pageopacity="0"
     inkscape:pageshadow="2"
     inkscape:window-width="640"
     inkscape:window-height="480"
     id="namedview16"
     showgrid="false"
     fit-margin-top="10"
     fit-margin-left="10"
     fit-margin-right="10"
     fit-margin-bottom="10"
     inkscape:zoom="1.888"
     inkscape:cx="18.728814"
     inkscape:cy="42.477065"
     inkscape:current-layer="svg2" /><path
     d="m 13.2,64.3 c 0.5,0.5 1.1,0.7 1.8,0.7 l 2.4,0 -4.9,22 c -0.7,3.1 4.2,4.2 4.9,1.1 l 5,-22.5 c 0,-0.2 0.1,-0.4 0.1,-0.5 l 20,0 c 0,0.2 0,0.4 0.1,0.5 l 5,22.5 c 0.7,3.1 5.6,2.1 4.9,-1.1 L 47.6,65 50,65 c 0.7,0 1.3,-0.3 1.8,-0.7 l 2.5,-2.5 C 54.8,61.3 55,60.7 55,60 l 0,-40 c 0,-0.7 -0.3,-1.3 -0.7,-1.8 L 51.8,15.7 C 51.3,15.2 50.7,15 50,15 l -10.4,0 c -1,-2.9 -3.8,-5 -7.1,-5 -3.3,0 -6,2.1 -7.1,5 L 15,15 c -0.7,0 -1.3,0.3 -1.8,0.7 l -2.5,2.5 C 10.2,18.7 10,19.3 10,20 l 0,40 c 0,0.7 0.3,1.3 0.7,1.8 l 2.5,2.5 z M 32.5,15 C 33.9,15 35,16.1 35,17.5 35,18.9 33.9,20 32.5,20 31.1,20 30,18.9 30,17.5 30,16.1 31.1,15 32.5,15 Z m -17.5,6 1,-1 9.4,0 c 1,2.9 3.8,5 7.1,5 3.3,0 6,-2.1 7.1,-5 l 9.4,0 1,1 0,38 -1,1 -33,0 -1,-1 0,-38 z"
     id="path4"
     inkscape:connector-curvature="0" /><path
     d="m 20,42.5 25,0 c 1.4,0 2.5,-1.1 2.5,-2.5 l 0,-10 c 0,-1.4 -1.1,-2.5 -2.5,-2.5 l -25,0 c -1.4,0 -2.5,1.1 -2.5,2.5 l 0,10 c 0,1.4 1.1,2.5 2.5,2.5 z m 15,-10 7.5,0 0,5 -7.5,0 0,-5 z m -12.5,0 7.5,0 0,5 -7.5,0 0,-5 z"
     id="path6"
     inkscape:connector-curvature="0" /><circle
     cx="20"
     cy="55"
     r="2.5"
     id="circle8" /><circle
     cx="45"
     cy="55"
     r="2.5"
     id="circle10" /></svg>