<?xml version="1.0" encoding="UTF-8" standalone="no"?>
<svg
   xmlns:dc="http://purl.org/dc/elements/1.1/"
   xmlns:cc="http://creativecommons.org/ns#"
   xmlns:rdf="http://www.w3.org/1999/02/22-rdf-syntax-ns#"
   xmlns:svg="http://www.w3.org/2000/svg"
   xmlns="http://www.w3.org/2000/svg"
   xmlns:sodipodi="http://sodipodi.sourceforge.net/DTD/sodipodi-0.dtd"
   xmlns:inkscape="http://www.inkscape.org/namespaces/inkscape"
   version="1.1"
   x="0px"
   y="0px"
   viewBox="0 0 100 100"
   xml:space="preserve"
   id="svg2"
   inkscape:version="0.91 r13725"
   sodipodi:docname="money.svg"
   width="100"
   height="100"><metadata
     id="metadata36"><rdf:RDF><cc:Work
         rdf:about=""><dc:format>image/svg+xml</dc:format><dc:type
           rdf:resource="http://purl.org/dc/dcmitype/StillImage" /><dc:title></dc:title></cc:Work></rdf:RDF></metadata><defs
     id="defs34" /><sodipodi:namedview
     pagecolor="#ffffff"
     bordercolor="#666666"
     borderopacity="1"
     objecttolerance="10"
     gridtolerance="10"
     guidetolerance="10"
     inkscape:pageopacity="0"
     inkscape:pageshadow="2"
     inkscape:window-width="640"
     inkscape:window-height="480"
     id="namedview32"
     showgrid="false"
     fit-margin-top="10"
     fit-margin-left="10"
     fit-margin-right="10"
     fit-margin-bottom="10"
     inkscape:zoom="5.3400704"
     inkscape:cx="41.905063"
     inkscape:cy="72.13975"
     inkscape:current-layer="svg2" /><style
     type="text/css"
     id="style4">
	.st0{fill:#010202;}
</style><g
     id="g6"
     transform="matrix(0.84283438,0,0,0.84283438,6.804738,7.858281)"><path
       class="st0"
       d="M 87.5,32.5 87.5,15 C 87.5,10.9 84.1,7.5 80,7.5 l -65,0 c -4.1,0 -7.5,3.4 -7.5,7.5 l 0,70 c 0,4.1 3.4,7.5 7.5,7.5 l 65,0 c 4.1,0 7.5,-3.4 7.5,-7.5 l 0,-17.5 c 4.1,0 7.5,-3.4 7.5,-7.5 l 0,-20 c 0,-4.1 -3.4,-7.5 -7.5,-7.5 z M 80,85 l -65,0 0,-70 65,0 0,17.5 -22.5,0 C 53.4,32.5 50,35.9 50,40 l 0,20 c 0,4.1 3.4,7.5 7.5,7.5 l 22.5,0 0,17.5 z m 7.5,-25 -30,0 0,-20 30,0 0,20 z"
       id="path8"
       inkscape:connector-curvature="0"
       style="fill:#010202" /><circle
       class="st0"
       cx="67.5"
       cy="50"
       r="5"
       id="circle10"
       style="fill:#010202" /><rect
       x="65"
       y="20"
       class="st0"
       width="10"
       height="5"
       id="rect12"
       style="fill:#010202" /><rect
       x="50"
       y="20"
       class="st0"
       width="10"
       height="5"
       id="rect14"
       style="fill:#010202" /><rect
       x="35"
       y="20"
       class="st0"
       width="10"
       height="5"
       id="rect16"
       style="fill:#010202" /><rect
       x="20"
       y="20"
       class="st0"
       width="10"
       height="5"
       id="rect18"
       style="fill:#010202" /><rect
       x="65"
       y="75"
       class="st0"
       width="10"
       height="5"
       id="rect20"
       style="fill:#010202" /><rect
       x="50"
       y="75"
       class="st0"
       width="10"
       height="5"
       id="rect22"
       style="fill:#010202" /><rect
       x="35"
       y="75"
       class="st0"
       width="10"
       height="5"
       id="rect24"
       style="fill:#010202" /><rect
       x="20"
       y="75"
       class="st0"
       width="10"
       height="5"
       id="rect26"
       style="fill:#010202" /></g></svg>