<?xml version="1.0" encoding="UTF-8" standalone="no"?>
<svg
   xmlns:dc="http://purl.org/dc/elements/1.1/"
   xmlns:cc="http://creativecommons.org/ns#"
   xmlns:rdf="http://www.w3.org/1999/02/22-rdf-syntax-ns#"
   xmlns:svg="http://www.w3.org/2000/svg"
   xmlns="http://www.w3.org/2000/svg"
   xmlns:sodipodi="http://sodipodi.sourceforge.net/DTD/sodipodi-0.dtd"
   xmlns:inkscape="http://www.inkscape.org/namespaces/inkscape"
   version="1.1"
   x="0px"
   y="0px"
   viewBox="0 0 100 100"
   enable-background="new 0 0 100 100"
   xml:space="preserve"
   id="svg2"
   inkscape:version="0.91 r13725"
   sodipodi:docname="other.svg"
   width="100"
   height="100"><metadata
     id="metadata14"><rdf:RDF><cc:Work
         rdf:about=""><dc:format>image/svg+xml</dc:format><dc:type
           rdf:resource="http://purl.org/dc/dcmitype/StillImage" /><dc:title></dc:title></cc:Work></rdf:RDF></metadata><defs
     id="defs12" /><sodipodi:namedview
     pagecolor="#ffffff"
     bordercolor="#666666"
     borderopacity="1"
     objecttolerance="10"
     gridtolerance="10"
     guidetolerance="10"
     inkscape:pageopacity="0"
     inkscape:pageshadow="2"
     inkscape:window-width="640"
     inkscape:window-height="480"
     id="namedview10"
     showgrid="false"
     fit-margin-top="10"
     fit-margin-left="10"
     fit-margin-right="10"
     fit-margin-bottom="10"
     inkscape:zoom="1.888"
     inkscape:cx="-83.241525"
     inkscape:cy="42.5"
     inkscape:current-layer="svg2" /><path
     d="M 50,11.6525 C 28.821102,11.6525 11.6525,28.821102 11.6525,50 11.6525,71.178898 28.821102,88.3475 50,88.3475 71.178898,88.3475 88.3475,71.178898 88.3475,50 88.3475,28.821102 71.178898,11.6525 50,11.6525 Z m 4.260834,59.651667 -8.521668,0 0,-8.521667 8.521668,0 0,8.521667 z m 3.39844,-19.591312 c -2.15939,1.618264 -3.39844,3.919114 -3.39844,6.31285 l 0,0.495962 -8.521668,0 0,-0.495962 c 0,-5.104478 2.482362,-9.891098 6.811369,-13.133592 1.12486,-0.842793 1.747793,-2.132121 1.708594,-3.538196 -0.0605,-2.180695 -1.954018,-4.075061 -4.135565,-4.135565 -1.177694,-0.0375 -2.262502,0.395406 -3.094217,1.204964 -0.831715,0.809558 -1.290181,1.894367 -1.290181,3.055017 l -8.521666,0 c 0,-3.4811 1.374545,-6.735525 3.870541,-9.162496 2.495144,-2.42697 5.790472,-3.710334 9.271573,-3.614891 6.663092,0.184068 12.233705,5.754682 12.417773,12.417773 0.115042,4.146643 -1.798924,8.106661 -5.118113,10.594136 z"
     id="path4"
     inkscape:connector-curvature="0" /></svg>