<?xml version="1.0" encoding="UTF-8" standalone="no"?>
<svg
   xmlns:dc="http://purl.org/dc/elements/1.1/"
   xmlns:cc="http://creativecommons.org/ns#"
   xmlns:rdf="http://www.w3.org/1999/02/22-rdf-syntax-ns#"
   xmlns:svg="http://www.w3.org/2000/svg"
   xmlns="http://www.w3.org/2000/svg"
   xmlns:sodipodi="http://sodipodi.sourceforge.net/DTD/sodipodi-0.dtd"
   xmlns:inkscape="http://www.inkscape.org/namespaces/inkscape"
   version="1.1"
   x="0px"
   y="0px"
   viewBox="0 0 110 110"
   enable-background="new 0 0 100 100"
   xml:space="preserve"
   id="svg2"
   inkscape:version="0.91 r13725"
   sodipodi:docname="other.svg"
   width="110"
   height="110"><metadata
     id="metadata14"><rdf:RDF><cc:Work
         rdf:about=""><dc:format>image/svg+xml</dc:format><dc:type
           rdf:resource="http://purl.org/dc/dcmitype/StillImage" /><dc:title></dc:title></cc:Work></rdf:RDF></metadata><defs
     id="defs12" /><sodipodi:namedview
     pagecolor="#ffffff"
     bordercolor="#666666"
     borderopacity="1"
     objecttolerance="10"
     gridtolerance="10"
     guidetolerance="10"
     inkscape:pageopacity="0"
     inkscape:pageshadow="2"
     inkscape:window-width="640"
     inkscape:window-height="480"
     id="namedview10"
     showgrid="false"
     fit-margin-top="10"
     fit-margin-left="10"
     fit-margin-right="10"
     fit-margin-bottom="10"
     inkscape:zoom="1.888"
     inkscape:cx="41.228814"
     inkscape:cy="42.5"
     inkscape:current-layer="svg2" /><path
     d="m 55,10 c -24.853,0 -45,20.147 -45,45 0,24.853 20.147,45 45,45 24.853,0 45,-20.147 45,-45 C 100,30.147 79.853,10 55,10 Z m 5,70 -10,0 0,-10 10,0 0,10 z M 63.988,57.01 C 61.454,58.909 60,61.609 60,64.418 L 60,65 50,65 50,64.418 c 0,-5.99 2.913,-11.607 7.993,-15.412 1.32,-0.989 2.051,-2.502 2.005,-4.152 -0.071,-2.559 -2.293,-4.782 -4.853,-4.853 -1.382,-0.044 -2.655,0.464 -3.631,1.414 C 50.538,42.365 50,43.638 50,45 l -10,0 c 0,-4.085 1.613,-7.904 4.542,-10.752 2.928,-2.848 6.795,-4.354 10.88,-4.242 7.819,0.216 14.356,6.753 14.572,14.572 0.135,4.866 -2.111,9.513 -6.006,12.432 z"
     id="path4"
     inkscape:connector-curvature="0" /></svg>