<?xml version="1.0" encoding="UTF-8" standalone="no"?>
<svg
   xmlns:dc="http://purl.org/dc/elements/1.1/"
   xmlns:cc="http://creativecommons.org/ns#"
   xmlns:rdf="http://www.w3.org/1999/02/22-rdf-syntax-ns#"
   xmlns:svg="http://www.w3.org/2000/svg"
   xmlns="http://www.w3.org/2000/svg"
   xmlns:sodipodi="http://sodipodi.sourceforge.net/DTD/sodipodi-0.dtd"
   xmlns:inkscape="http://www.inkscape.org/namespaces/inkscape"
   version="1.1"
   x="0px"
   y="0px"
   viewBox="0 0 100 100"
   xml:space="preserve"
   id="svg2"
   inkscape:version="0.91 r13725"
   sodipodi:docname="ticket.svg"
   width="100"
   height="100"><metadata
     id="metadata18"><rdf:RDF><cc:Work
         rdf:about=""><dc:format>image/svg+xml</dc:format><dc:type
           rdf:resource="http://purl.org/dc/dcmitype/StillImage" /><dc:title></dc:title></cc:Work></rdf:RDF></metadata><defs
     id="defs16" /><sodipodi:namedview
     pagecolor="#ffffff"
     bordercolor="#666666"
     borderopacity="1"
     objecttolerance="10"
     gridtolerance="10"
     guidetolerance="10"
     inkscape:pageopacity="0"
     inkscape:pageshadow="2"
     inkscape:window-width="640"
     inkscape:window-height="480"
     id="namedview14"
     showgrid="false"
     fit-margin-top="10"
     fit-margin-left="10"
     fit-margin-right="10"
     fit-margin-bottom="10"
     inkscape:zoom="5.3400704"
     inkscape:cx="56.901366"
     inkscape:cy="54.01463"
     inkscape:current-layer="svg2" /><g
     id="g34949"
     transform="matrix(0.81683997,0,0,0.81683997,5.0738017,5.0738017)"><path
       inkscape:connector-curvature="0"
       id="path4"
       d="M 82.5,35 C 78.358,35 75,31.642 75,27.5 c 0,-2.071 0.839,-3.946 2.197,-5.303 L 65,10 49.268,25.732 45.733,29.267 10,65 22.197,77.197 C 23.554,75.839 25.429,75 27.5,75 c 4.142,0 7.5,3.358 7.5,7.5 0,2.071 -0.839,3.946 -2.197,5.303 L 45,100 80.732,64.268 84.267,60.733 100,45 87.803,32.803 C 86.446,34.161 84.571,35 82.5,35 Z m -3.536,20.429 -4.337,-4.336 -3.535,3.536 4.336,4.336 L 45,89.393 41.994,86.387 c 0.334,-1.252 0.506,-2.557 0.506,-3.888 0,-8.271 -6.729,-15 -15,-15 -1.331,0 -2.635,0.172 -3.888,0.506 L 20.607,65 51.036,34.571 55.371,38.907 58.906,35.372 54.571,31.036 65,20.607 l 3.006,3.006 c -0.334,1.253 -0.506,2.557 -0.506,3.888 0,8.271 6.729,15 15,15 1.331,0 2.635,-0.172 3.888,-0.506 L 89.393,45 78.964,55.429 Z" /><rect
       id="rect6"
       height="4.9989519"
       width="7.4109287"
       transform="matrix(0.70710678,0.70710678,-0.70710678,0.70710678,0,0)"
       y="-16.644951"
       x="69.135818" /><rect
       id="rect8"
       height="4.9999518"
       width="7.4119291"
       transform="matrix(-0.70710678,-0.70710678,0.70710678,-0.70710678,0,0)"
       y="11.644574"
       x="-86.430908" /></g></svg>