<?xml version="1.0" encoding="UTF-8" standalone="no"?>
<svg
   xmlns:dc="http://purl.org/dc/elements/1.1/"
   xmlns:cc="http://creativecommons.org/ns#"
   xmlns:rdf="http://www.w3.org/1999/02/22-rdf-syntax-ns#"
   xmlns:svg="http://www.w3.org/2000/svg"
   xmlns="http://www.w3.org/2000/svg"
   xmlns:sodipodi="http://sodipodi.sourceforge.net/DTD/sodipodi-0.dtd"
   xmlns:inkscape="http://www.inkscape.org/namespaces/inkscape"
   version="1.1"
   x="0px"
   y="0px"
   viewBox="0 0 100 99.999997"
   enable-background="new 0 0 100 100"
   xml:space="preserve"
   id="svg2"
   inkscape:version="0.91 r13725"
   sodipodi:docname="train.svg"
   width="100"
   height="100"><metadata
     id="metadata18"><rdf:RDF><cc:Work
         rdf:about=""><dc:format>image/svg+xml</dc:format><dc:type
           rdf:resource="http://purl.org/dc/dcmitype/StillImage" /><dc:title></dc:title></cc:Work></rdf:RDF></metadata><defs
     id="defs16" /><sodipodi:namedview
     pagecolor="#ffffff"
     bordercolor="#666666"
     borderopacity="1"
     objecttolerance="10"
     gridtolerance="10"
     guidetolerance="10"
     inkscape:pageopacity="0"
     inkscape:pageshadow="2"
     inkscape:window-width="640"
     inkscape:window-height="480"
     id="namedview14"
     showgrid="false"
     fit-margin-top="10"
     fit-margin-left="10"
     fit-margin-right="10"
     fit-margin-bottom="10"
     inkscape:zoom="2.6700352"
     inkscape:cx="19.76511"
     inkscape:cy="41.149854"
     inkscape:current-layer="svg2" /><path
     d="m 38.8802,1.0916964e-4 c -0.737243,0 -1.443993,0.29291980036 -1.965511,0.81443850036 l -5.5599,5.55990003 c -2.535315,2.5342024 1.395708,6.4663373 3.931022,3.9310233 l 4.745462,-4.7454618 6.037704,0 8.33985,8.3398498 -5.751021,5.751022 c -2.051603,0.288003 -3.896501,1.218868 -5.323171,2.588827 l -10.014335,0 c -0.737243,0 -1.443993,0.29292 -1.965511,0.814439 l -8.33985,8.33985 C 22.494532,31.915516 22.2005,32.622266 22.2005,33.359508 l 0,27.7995 c 0,0.737243 0.294032,1.443994 0.814439,1.965513 l 8.33985,8.33985 c 0.504839,0.505951 1.185405,0.790131 1.898184,0.807922 l -5.425246,24.422296 c -0.778386,3.500511 4.650144,4.706941 5.427418,1.20754 l 5.5599,-25.01955 c 0.04559,-0.20238 0.06187,-0.404725 0.06298,-0.603771 l 22.246115,0 c 0,0.199046 0.01739,0.401391 0.06298,0.603771 l 5.5599,25.01955 c 0.777274,3.499401 6.205804,2.292971 5.427418,-1.20754 L 66.747027,72.272293 c 0.712779,-0.01668 1.392233,-0.301971 1.898184,-0.807922 l 8.33985,-8.33985 C 77.505468,62.604114 77.7995,61.896252 77.7995,61.159008 l 0,-27.7995 c 0,-0.737242 -0.294032,-1.443992 -0.814439,-1.965511 l -8.33985,-8.33985 C 68.123693,22.532628 67.416943,22.239708 66.6797,22.239708 l -10.012163,0 C 56.198281,21.789357 55.68253,21.387845 55.129876,21.038683 l 5.175485,-5.173312 c 1.086405,-1.085292 1.086405,-2.845731 0,-3.931024 l -6.374338,-6.3743378 6.037704,0 4.745462,4.7454618 c 2.535314,2.535314 6.466337,-1.3968209 3.931022,-3.9310233 l -5.5599,-5.55990003 C 62.563793,0.29191707 61.857043,1.0916964e-4 61.1198,1.0916964e-4 l -22.2396,0 z M 50,25.106533 c 2.250648,0 4.083052,1.831291 4.083052,4.08305 0,2.25176 -1.832404,4.083052 -4.083052,4.083053 -2.250648,0 -4.083052,-1.831292 -4.083052,-4.083053 0,-2.251758 1.832404,-4.08305 4.083052,-4.08305 z m -15.528627,2.693075 5.998611,0 c -0.06672,0.4548 -0.112936,0.916273 -0.112936,1.389975 0,1.494503 0.351646,2.905604 0.962123,4.169925 l -5.218921,0 c -1.535644,0 -2.77995,1.244306 -2.77995,2.77995 l 0,11.1198 c 0,1.535646 1.244306,2.77995 2.77995,2.77995 l 27.7995,0 c 1.535644,0 2.77995,-1.244304 2.77995,-2.77995 l 0,-11.1198 c 0,-1.535644 -1.244306,-2.77995 -2.77995,-2.77995 l -5.218921,0 c 0.609365,-1.264321 0.962123,-2.675422 0.962123,-4.169925 0,-0.473702 -0.04622,-0.935174 -0.112936,-1.389975 l 5.998611,0 6.710973,6.710974 0,25.497354 -6.710973,6.710972 -31.057254,0 -6.710973,-6.713144 0,-25.495182 6.710973,-6.710974 z m 4.408827,11.1198 8.33985,0 0,5.5599 -8.33985,0 0,-5.5599 z m 13.89975,0 8.33985,0 0,5.5599 -8.33985,0 0,-5.5599 z M 38.8802,58.379058 c -1.535644,0 -2.77995,1.244306 -2.77995,2.77995 l 0,0.334464 c 0,1.535644 1.244306,2.77995 2.77995,2.77995 1.535644,0 2.77995,-1.244306 2.77995,-2.77995 l 0,-0.334464 c 0,-1.535644 -1.244306,-2.77995 -2.77995,-2.77995 z m 22.2396,0 c -1.535644,0 -2.77995,1.244306 -2.77995,2.77995 l 0,0.334464 c 0,1.535644 1.244306,2.77995 2.77995,2.77995 1.535644,0 2.77995,-1.244306 2.77995,-2.77995 l 0,-0.334464 c 0,-1.535644 -1.244306,-2.77995 -2.77995,-2.77995 z"
     id="path4"
     inkscape:connector-curvature="0" /></svg>