<?xml version="1.0" encoding="UTF-8" standalone="no"?>
<svg
   xmlns:dc="http://purl.org/dc/elements/1.1/"
   xmlns:cc="http://creativecommons.org/ns#"
   xmlns:rdf="http://www.w3.org/1999/02/22-rdf-syntax-ns#"
   xmlns:svg="http://www.w3.org/2000/svg"
   xmlns="http://www.w3.org/2000/svg"
   xmlns:sodipodi="http://sodipodi.sourceforge.net/DTD/sodipodi-0.dtd"
   xmlns:inkscape="http://www.inkscape.org/namespaces/inkscape"
   version="1.1"
   x="0px"
   y="0px"
   viewBox="0 0 70 109.92986"
   enable-background="new 0 0 100 100"
   xml:space="preserve"
   id="svg2"
   inkscape:version="0.91 r13725"
   sodipodi:docname="train.svg"
   width="70"
   height="109.92986"><metadata
     id="metadata18"><rdf:RDF><cc:Work
         rdf:about=""><dc:format>image/svg+xml</dc:format><dc:type
           rdf:resource="http://purl.org/dc/dcmitype/StillImage" /><dc:title></dc:title></cc:Work></rdf:RDF></metadata><defs
     id="defs16" /><sodipodi:namedview
     pagecolor="#ffffff"
     bordercolor="#666666"
     borderopacity="1"
     objecttolerance="10"
     gridtolerance="10"
     guidetolerance="10"
     inkscape:pageopacity="0"
     inkscape:pageshadow="2"
     inkscape:window-width="640"
     inkscape:window-height="480"
     id="namedview14"
     showgrid="false"
     fit-margin-top="10"
     fit-margin-left="10"
     fit-margin-right="10"
     fit-margin-bottom="10"
     inkscape:zoom="1.888"
     inkscape:cx="21.228814"
     inkscape:cy="10.891312"
     inkscape:current-layer="svg2" /><path
     d="m 18.232,74.268 c 0.454,0.455 1.067,0.711 1.708,0.727 l -4.88,21.963 c -0.7,3.148 4.182,4.232 4.881,1.085 l 5,-22.5 c 0.041,-0.182 0.056,-0.363 0.057,-0.542 l 20.006,0 c 0,0.179 0.016,0.36 0.057,0.542 l 5,22.5 c 0.699,3.147 5.581,2.063 4.881,-1.085 L 50.06,74.994 c 0.641,-0.015 1.253,-0.272 1.708,-0.727 l 7.5,-7.5 C 59.736,66.299 60,65.663 60,65 l 0,-25 c 0,-0.663 -0.264,-1.299 -0.732,-1.768 l -7.5,-7.5 C 51.299,30.263 50.663,30 50,30 l -9.004,0 c -0.422,-0.405 -0.885,-0.765 -1.382,-1.079 l 4.653,-4.653 c 0.977,-0.976 0.977,-2.559 0,-3.535 L 38.535,15 l 5.43,0 4.268,4.268 c 2.28,2.28 5.815,-1.256 3.535,-3.535 l -5,-5 C 46.299,10.263 45.663,10 45,10 l -20,0 c -0.663,0 -1.299,0.263 -1.768,0.732 l -5,5 c -2.28,2.279 1.255,5.815 3.535,3.535 L 26.035,15 l 5.43,0 7.5,7.5 -5.172,5.172 C 31.948,27.931 30.288,28.768 29.005,30 L 20,30 c -0.663,0 -1.299,0.263 -1.768,0.732 l -7.5,7.5 C 10.264,38.701 10,39.337 10,40 l 0,25 c 0,0.663 0.264,1.299 0.732,1.768 l 7.5,7.5 z M 45,45 l 0,5 -7.5,0 0,-5 7.5,0 z M 35,32.578 c 2.024,0 3.672,1.647 3.672,3.672 0,2.025 -1.648,3.672 -3.672,3.672 -2.024,0 -3.672,-1.647 -3.672,-3.672 0,-2.025 1.648,-3.672 3.672,-3.672 z M 32.5,45 l 0,5 -7.5,0 0,-5 7.5,0 z M 15,41.036 21.035,35 l 5.394,0 c -0.06,0.409 -0.101,0.824 -0.101,1.25 0,1.344 0.316,2.613 0.865,3.75 L 22.5,40 C 21.119,40 20,41.119 20,42.5 l 0,10 c 0,1.381 1.119,2.5 2.5,2.5 l 25,0 c 1.381,0 2.5,-1.119 2.5,-2.5 l 0,-10 C 50,41.119 48.881,40 47.5,40 l -4.693,0 c 0.548,-1.137 0.865,-2.406 0.865,-3.75 0,-0.426 -0.041,-0.841 -0.101,-1.25 L 48.965,35 55,41.036 55,63.965 48.965,70 21.035,70 15,63.964 15,41.036 Z"
     id="path4"
     inkscape:connector-curvature="0" /><path
     d="m 25,67.8 c 1.381,0 2.5,-1.119 2.5,-2.5 l 0,-0.3 c 0,-1.381 -1.119,-2.5 -2.5,-2.5 -1.381,0 -2.5,1.119 -2.5,2.5 l 0,0.3 c 0,1.381 1.119,2.5 2.5,2.5 z"
     id="path6"
     inkscape:connector-curvature="0" /><path
     d="m 45,67.8 c 1.381,0 2.5,-1.119 2.5,-2.5 l 0,-0.3 c 0,-1.381 -1.119,-2.5 -2.5,-2.5 -1.381,0 -2.5,1.119 -2.5,2.5 l 0,0.3 c 0,1.381 1.119,2.5 2.5,2.5 z"
     id="path8"
     inkscape:connector-curvature="0" /></svg>