<?xml version="1.0" encoding="UTF-8" standalone="no"?>
<svg
   xmlns:dc="http://purl.org/dc/elements/1.1/"
   xmlns:cc="http://creativecommons.org/ns#"
   xmlns:rdf="http://www.w3.org/1999/02/22-rdf-syntax-ns#"
   xmlns:svg="http://www.w3.org/2000/svg"
   xmlns="http://www.w3.org/2000/svg"
   xmlns:sodipodi="http://sodipodi.sourceforge.net/DTD/sodipodi-0.dtd"
   xmlns:inkscape="http://www.inkscape.org/namespaces/inkscape"
   version="1.1"
   x="0px"
   y="0px"
   viewBox="0 0 75 109.97707"
   enable-background="new 0 0 100 100"
   xml:space="preserve"
   id="svg2"
   inkscape:version="0.91 r13725"
   sodipodi:docname="tram.svg"
   width="75"
   height="109.97707"><metadata
     id="metadata20"><rdf:RDF><cc:Work
         rdf:about=""><dc:format>image/svg+xml</dc:format><dc:type
           rdf:resource="http://purl.org/dc/dcmitype/StillImage" /><dc:title></dc:title></cc:Work></rdf:RDF></metadata><defs
     id="defs18" /><sodipodi:namedview
     pagecolor="#ffffff"
     bordercolor="#666666"
     borderopacity="1"
     objecttolerance="10"
     gridtolerance="10"
     guidetolerance="10"
     inkscape:pageopacity="0"
     inkscape:pageshadow="2"
     inkscape:window-width="640"
     inkscape:window-height="480"
     id="namedview16"
     showgrid="false"
     fit-margin-top="10"
     fit-margin-left="10"
     fit-margin-right="10"
     fit-margin-bottom="10"
     inkscape:zoom="1.888"
     inkscape:cx="23.728814"
     inkscape:cy="42.477065"
     inkscape:current-layer="svg2" /><path
     d="m 25,55 25,0 c 1.4,0 2.5,-1.1 2.5,-2.5 l 0,-10 c 0,-0.9 -0.5,-1.8 -1.4,-2.2 l -5,-2.5 C 45.8,37.6 45.4,37.5 45,37.5 l -15,0 c -0.4,0 -0.8,0.1 -1.1,0.3 l -5,2.5 c -0.8,0.4 -1.4,1.3 -1.4,2.2 l 0,10 c 0,1.4 1.1,2.5 2.5,2.5 z m 2.5,-11 3.1,-1.5 13.8,0 3.1,1.5 0,6 -20,0 0,-6 z"
     id="path4"
     inkscape:connector-curvature="0" /><path
     d="m 12.5,47.5 2.5,0 0,20 c 0,0.4 0.1,0.8 0.3,1.1 l 2.5,5 c 0.4,0.8 1.3,1.4 2.2,1.4 l 2.4,0 -4.9,22 c -0.7,3.1 4.2,4.2 4.9,1.1 l 5,-22.5 c 0,-0.2 0.1,-0.4 0.1,-0.5 l 20,0 c 0,0.2 0,0.4 0.1,0.5 l 5,22.5 c 0.7,3.1 5.6,2.1 4.9,-1.1 L 52.6,75 55,75 c 0.9,0 1.8,-0.5 2.2,-1.4 l 2.5,-5 C 59.9,68.3 60,67.9 60,67.5 l 0,-20 2.5,0 c 1.4,0 2.5,-1.1 2.5,-2.5 0,-1.4 -1.1,-2.5 -2.5,-2.5 l -2.5,0 0,-5 c 0,-0.9 -0.5,-1.8 -1.4,-2.2 l -10,-5 C 48.3,30.1 47.9,30 47.5,30 l -6.5,0 5.7,-5.7 c 1,-1 1,-2.6 0,-3.5 L 41,15 l 5.5,0 4.3,4.3 c 2.3,2.3 5.8,-1.3 3.5,-3.5 l -5,-5 C 48.8,10.3 48.2,10 47.5,10 l -20,0 c -0.7,0 -1.3,0.3 -1.8,0.7 l -5,5 c -2.3,2.3 1.3,5.8 3.5,3.5 l 4.3,-4.2 5.4,0 7.5,7.5 -7.4,7.5 -6.5,0 c -0.4,0 -0.8,0.1 -1.1,0.3 l -10,5 C 15.6,35.7 15,36.6 15,37.5 l 0,5 -2.5,0 c -1.4,0 -2.5,1.1 -2.5,2.5 0,1.4 1.1,2.5 2.5,2.5 z M 20,39 28.1,35 46.9,35 55,39 55,66.9 53.5,70 21.5,70 20,66.9 20,39 Z"
     id="path6"
     inkscape:connector-curvature="0" /><circle
     cx="27.5"
     cy="62.5"
     r="2.5"
     id="circle8" /><circle
     cx="47.5"
     cy="62.5"
     r="2.5"
     id="circle10" /></svg>