<?xml version="1.0" encoding="UTF-8" standalone="no"?>
<svg
   xmlns:dc="http://purl.org/dc/elements/1.1/"
   xmlns:cc="http://creativecommons.org/ns#"
   xmlns:rdf="http://www.w3.org/1999/02/22-rdf-syntax-ns#"
   xmlns:svg="http://www.w3.org/2000/svg"
   xmlns="http://www.w3.org/2000/svg"
   xmlns:sodipodi="http://sodipodi.sourceforge.net/DTD/sodipodi-0.dtd"
   xmlns:inkscape="http://www.inkscape.org/namespaces/inkscape"
   version="1.1"
   x="0px"
   y="0px"
   viewBox="0 0 100 99.999997"
   enable-background="new 0 0 100 100"
   xml:space="preserve"
   id="svg2"
   inkscape:version="0.91 r13725"
   sodipodi:docname="tram.svg"
   width="100"
   height="100"><metadata
     id="metadata20"><rdf:RDF><cc:Work
         rdf:about=""><dc:format>image/svg+xml</dc:format><dc:type
           rdf:resource="http://purl.org/dc/dcmitype/StillImage" /><dc:title></dc:title></cc:Work></rdf:RDF></metadata><defs
     id="defs18" /><sodipodi:namedview
     pagecolor="#ffffff"
     bordercolor="#666666"
     borderopacity="1"
     objecttolerance="10"
     gridtolerance="10"
     guidetolerance="10"
     inkscape:pageopacity="0"
     inkscape:pageshadow="2"
     inkscape:window-width="640"
     inkscape:window-height="480"
     id="namedview16"
     showgrid="false"
     fit-margin-top="10"
     fit-margin-left="10"
     fit-margin-right="10"
     fit-margin-bottom="10"
     inkscape:zoom="1.888"
     inkscape:cx="9.9576276"
     inkscape:cy="42.477065"
     inkscape:current-layer="svg2" /><path
     d="M 38.886027,6.5630401e-8 C 38.108049,6.5630401e-8 37.440342,0.33255097 36.884644,0.77710987 L 31.327657,6.3340965 c -2.556214,2.5562139 1.444816,6.4461045 3.889891,3.8898905 l 4.779876,-4.6670003 6.00198,0 8.33548,8.3354803 -8.224775,8.33548 -7.224082,0 c -0.444559,0 -0.888684,0.109837 -1.222103,0.332116 L 26.549951,28.11705 c -0.889118,0.444559 -1.556391,1.446119 -1.556391,2.446377 l 0,5.556986 -2.778493,0 c -1.555957,0 -2.778494,1.222537 -2.778494,2.778494 0,1.555955 1.222537,2.778493 2.778494,2.778493 l 2.778493,0 0,22.227947 c 0,0.444557 0.112008,0.888683 0.334287,1.222102 l 2.778494,5.556987 c 0.444559,0.889118 1.443948,1.556389 2.444206,1.556391 l 2.667788,0 -5.446282,24.450741 c -0.777978,3.445332 4.668304,4.667432 5.446282,1.222102 l 5.556987,-25.00644 c 0,-0.222279 0.110705,-0.444559 0.110705,-0.555698 l 22.227946,0 c 0,0.222279 -4.34e-4,0.444559 0.110705,0.555698 l 5.556987,25.00644 c 0.777978,3.44533 6.22426,2.33437 5.446282,-1.222102 l -5.446282,-24.450741 2.667788,0 c 1.000258,0 1.999647,-0.556134 2.444206,-1.556391 l 2.778494,-5.556987 c 0.222279,-0.333419 0.334287,-0.777545 0.334287,-1.222102 l 0,-22.227947 2.778493,0 c 1.555956,0 2.778494,-1.222538 2.778494,-2.778493 0,-1.555957 -1.222538,-2.778494 -2.778494,-2.778494 l -2.778493,0 0,-5.556986 c 0,-1.000258 -0.556133,-2.001818 -1.556391,-2.446377 L 62.336076,22.560063 c -0.333419,-0.222279 -0.777544,-0.332116 -1.222103,-0.332116 l -7.224082,0 6.334096,-6.336268 c 1.111398,-1.111397 1.111398,-2.889632 0,-3.88989 l -6.334096,-6.4448023 6.112685,0 4.779876,4.7777063 c 2.556214,2.556213 6.446105,-1.4448167 3.889891,-3.8898909 L 63.115356,0.88781547 C 62.559658,0.33211687 61.891951,6.5630402e-8 61.113973,6.5630402e-8 l -22.227946,0 z M 39.552431,27.784933 l 20.895138,0 9.001884,4.44559 0,31.008419 -1.667096,3.444898 -35.564714,0 -1.667096,-3.444898 0,-31.008419 9.001884,-4.44559 z m 2.112089,2.778494 c -0.444559,0 -0.888683,0.109837 -1.222102,0.332116 l -5.556987,2.778494 c -0.889118,0.444559 -1.556391,1.446119 -1.556391,2.446376 l 0,11.113974 c 0,1.555955 1.222537,2.778492 2.778493,2.778493 l 27.784934,0 c 1.555956,0 2.778493,-1.222538 2.778493,-2.778493 l 0,-11.113974 c 0,-1.000257 -0.556133,-2.001817 -1.556391,-2.446376 L 59.557582,30.895543 C 59.224163,30.673264 58.780039,30.563426 58.33548,30.563427 l -16.67096,0 z m 0.666404,5.556986 15.338152,0 3.444897,1.667096 0,6.668384 -22.227946,0 0,-6.668384 3.444897,-1.667096 z m -3.444897,19.449454 a 2.7784933,2.7784933 0 0 0 -2.778494,2.778493 2.7784933,2.7784933 0 0 0 2.778494,2.778493 2.7784933,2.7784933 0 0 0 2.778493,-2.778493 2.7784933,2.7784933 0 0 0 -2.778493,-2.778493 z m 22.227946,0 a 2.7784933,2.7784933 0 0 0 -2.778493,2.778493 2.7784933,2.7784933 0 0 0 2.778493,2.778493 2.7784933,2.7784933 0 0 0 2.778494,-2.778493 2.7784933,2.7784933 0 0 0 -2.778494,-2.778493 z"
     id="path4"
     inkscape:connector-curvature="0" /></svg>