<?xml version="1.0" encoding="UTF-8" standalone="no"?>
<svg
   xmlns:dc="http://purl.org/dc/elements/1.1/"
   xmlns:cc="http://creativecommons.org/ns#"
   xmlns:rdf="http://www.w3.org/1999/02/22-rdf-syntax-ns#"
   xmlns:svg="http://www.w3.org/2000/svg"
   xmlns="http://www.w3.org/2000/svg"
   xmlns:sodipodi="http://sodipodi.sourceforge.net/DTD/sodipodi-0.dtd"
   xmlns:inkscape="http://www.inkscape.org/namespaces/inkscape"
   version="1.1"
   x="0px"
   y="0px"
   viewBox="0 0 100 100"
   enable-background="new 0 0 100 100"
   xml:space="preserve"
   id="svg2"
   inkscape:version="0.91 r13725"
   sodipodi:docname="trolley.svg"
   width="100"
   height="100"><metadata
     id="metadata20"><rdf:RDF><cc:Work
         rdf:about=""><dc:format>image/svg+xml</dc:format><dc:type
           rdf:resource="http://purl.org/dc/dcmitype/StillImage" /><dc:title></dc:title></cc:Work></rdf:RDF></metadata><defs
     id="defs18" /><sodipodi:namedview
     pagecolor="#ffffff"
     bordercolor="#666666"
     borderopacity="1"
     objecttolerance="10"
     gridtolerance="10"
     guidetolerance="10"
     inkscape:pageopacity="0"
     inkscape:pageshadow="2"
     inkscape:window-width="640"
     inkscape:window-height="480"
     id="namedview16"
     showgrid="false"
     fit-margin-top="10"
     fit-margin-left="10"
     fit-margin-right="10"
     fit-margin-bottom="10"
     inkscape:zoom="3.776"
     inkscape:cx="38.986578"
     inkscape:cy="27.505609"
     inkscape:current-layer="svg2"
     showguides="true"
     inkscape:guide-bbox="true"><sodipodi:guide
       position="21.716102,56.673729"
       orientation="1,0"
       id="guide17052" /><sodipodi:guide
       position="78.125,54.290254"
       orientation="1,0"
       id="guide17054" /><sodipodi:guide
       position="28.072034,68.988348"
       orientation="1,0"
       id="guide17056" /><sodipodi:guide
       position="71.769068,51.90678"
       orientation="1,0"
       id="guide17058" /></sodipodi:namedview><path
     d="M 28.459952,7.7215808 C 26.1523,7.5219366 23.757057,10.177012 25.448162,12.619717 l 14.53048,20.292271 c -1.377936,0.250533 -2.50534,1.503691 -2.50534,3.006896 l -12.526697,0 c -1.753737,0 -3.131673,1.377937 -3.131673,3.131674 l 0,6.263348 -3.131676,0 c -4.008542,0 -4.008542,6.26335 0,6.26335 l 3.131676,0 0,37.580086 c 0,1.753742 1.377936,3.131684 3.131673,3.131684 l 9.395023,0 c 1.753737,0 3.131674,-1.377942 3.131674,-3.131684 l 0,-3.131671 25.053395,0 0,3.131671 c 0,1.753742 1.377937,3.131684 3.131674,3.131684 l 9.395023,0 c 1.753737,0 3.131674,-1.377942 3.131674,-3.131684 l 0,-37.580086 3.131675,0 c 4.008543,0 4.008543,-6.26335 0,-6.26335 l -3.131675,0 0,-6.263348 c 0,-1.753737 -1.377937,-3.131674 -3.131674,-3.131674 l -12.526697,0 c 0,-1.753738 -1.377937,-3.131674 -3.131675,-3.131674 0,-0.626335 -0.125267,-1.252671 -0.626334,-1.879006 L 43.110316,8.9864842 C 40.730243,5.7295429 35.720053,9.362775 37.974859,12.619717 l 14.405701,20.042714 -5.512235,0 c 0,-0.626335 -0.125267,-1.252668 -0.626335,-1.879003 L 30.583619,8.9864842 C 29.988601,8.1722489 29.22917,7.788129 28.459952,7.7215808 Z m -0.381673,34.4606512 43.84344,0 0,43.843439 -3.131674,0 0,-3.131673 c 0,-1.753738 -1.377937,-3.131674 -3.131674,-3.131674 l -31.316743,0 c -1.753738,0 -3.131675,1.377936 -3.131675,3.131674 l 0,3.131673 -3.131674,0 0,-43.843439 z m 6.263349,3.131674 c -1.753738,0 -3.131675,1.377937 -3.131675,3.131674 l 0,15.658372 c 0,1.753737 1.377937,3.131674 3.131675,3.131674 l 31.316743,0 c 1.753737,0 3.131674,-1.377937 3.131674,-3.131674 l 0,-15.658372 c 0,-1.753737 -1.377937,-3.131674 -3.131674,-3.131674 l -31.316743,0 z m 3.131674,6.26335 25.053395,0 0,9.395022 -25.053395,0 0,-9.395022 z m 0,18.790046 a 3.1316744,3.1316744 0 0 0 -3.131674,3.131674 3.1316744,3.1316744 0 0 0 3.131674,3.131673 3.1316744,3.1316744 0 0 0 3.131675,-3.131673 3.1316744,3.1316744 0 0 0 -3.131675,-3.131674 z m 25.053395,0 a 3.1316744,3.1316744 0 0 0 -3.131675,3.131674 3.1316744,3.1316744 0 0 0 3.131675,3.131673 3.1316744,3.1316744 0 0 0 3.131674,-3.131673 3.1316744,3.1316744 0 0 0 -3.131674,-3.131674 z"
     id="path4"
     inkscape:connector-curvature="0" /></svg>