<?xml version="1.0" encoding="UTF-8" standalone="no"?>
<svg
   xmlns:dc="http://purl.org/dc/elements/1.1/"
   xmlns:cc="http://creativecommons.org/ns#"
   xmlns:rdf="http://www.w3.org/1999/02/22-rdf-syntax-ns#"
   xmlns:svg="http://www.w3.org/2000/svg"
   xmlns="http://www.w3.org/2000/svg"
   xmlns:sodipodi="http://sodipodi.sourceforge.net/DTD/sodipodi-0.dtd"
   xmlns:inkscape="http://www.inkscape.org/namespaces/inkscape"
   version="1.1"
   x="0px"
   y="0px"
   viewBox="0 0 74.800003 87.517845"
   enable-background="new 0 0 100 100"
   xml:space="preserve"
   id="svg2"
   inkscape:version="0.91 r13725"
   sodipodi:docname="trolley.svg"
   width="74.800003"
   height="87.517845"><metadata
     id="metadata20"><rdf:RDF><cc:Work
         rdf:about=""><dc:format>image/svg+xml</dc:format><dc:type
           rdf:resource="http://purl.org/dc/dcmitype/StillImage" /><dc:title></dc:title></cc:Work></rdf:RDF></metadata><defs
     id="defs18" /><sodipodi:namedview
     pagecolor="#ffffff"
     bordercolor="#666666"
     borderopacity="1"
     objecttolerance="10"
     gridtolerance="10"
     guidetolerance="10"
     inkscape:pageopacity="0"
     inkscape:pageshadow="2"
     inkscape:window-width="640"
     inkscape:window-height="480"
     id="namedview16"
     showgrid="false"
     fit-margin-top="10"
     fit-margin-left="10"
     fit-margin-right="10"
     fit-margin-bottom="10"
     inkscape:zoom="1.888"
     inkscape:cx="23.628814"
     inkscape:cy="20"
     inkscape:current-layer="svg2" /><path
     d="m 24.9,57.517845 25,0 c 1.4,0 2.5,-1.1 2.5,-2.5 l 0,-12.5 c 0,-1.4 -1.1,-2.5 -2.5,-2.5 l -25,0 c -1.4,0 -2.5,1.1 -2.5,2.5 l 0,12.5 c 0,1.4 1.1,2.5 2.5,2.5 z m 2.5,-12.5 20,0 0,7.5 -20,0 0,-7.5 z"
     id="path4"
     inkscape:connector-curvature="0" /><path
     d="m 12.4,45.017845 2.5,0 0,30 c 0,1.4 1.1,2.5 2.5,2.5 l 7.5,0 c 1.4,0 2.5,-1.1 2.5,-2.5 l 0,-2.5 20,0 0,2.5 c 0,1.4 1.1,2.5 2.5,2.5 l 7.5,0 c 1.4,0 2.5,-1.1 2.5,-2.5 l 0,-30 2.5,0 c 3.2,0 3.2,-5 0,-5 l -2.5,0 0,-5 c 0,-1.4 -1.1,-2.5 -2.5,-2.5 l -10,0 c 0,-1.4 -1.1,-2.5 -2.5,-2.5 l 0,0 c 0,-0.5 -0.1,-1 -0.5,-1.5 l -12.5,-17.5 c -1.9,-2.5999999 -5.9,0.3 -4.1,2.9 l 11.5,16 -4.4,0 c 0,-0.5 -0.1,-1 -0.5,-1.5 l -12.5,-17.4 c -1.9,-2.5999999 -5.9,0.3 -4.1,2.9 l 11.6,16.2 c -1.1,0.2 -2,1.2 -2,2.4 l -10,0 c -1.4,0 -2.5,1.1 -2.5,2.5 l 0,5 -2.5,0 c -3.2,0 -3.2,5 0,5 z m 7.5,-7.5 35,0 0,35 -2.5,0 0,-2.5 c 0,-1.4 -1.1,-2.5 -2.5,-2.5 l -25,0 c -1.4,0 -2.5,1.1 -2.5,2.5 l 0,2.5 -2.5,0 0,-35 z"
     id="path6"
     inkscape:connector-curvature="0" /><circle
     cx="27.4"
     cy="62.517845"
     r="2.5"
     id="circle8" /><circle
     cx="47.400002"
     cy="62.517845"
     r="2.5"
     id="circle10" /></svg>